<svg width="25" height="24" viewBox="0 0 25 24" fill="none" xmlns="http://www.w3.org/2000/svg">
<path d="M14.0875 9.9V8.2C14.6409 7.96667 15.207 7.79167 15.7856 7.675C16.3641 7.55833 16.9721 7.5 17.6094 7.5C18.0454 7.5 18.4731 7.53333 18.8923 7.6C19.3116 7.66667 19.7225 7.75 20.125 7.85V9.45C19.7225 9.3 19.3158 9.1875 18.9049 9.1125C18.494 9.0375 18.0622 9 17.6094 9C16.9721 9 16.36 9.07917 15.773 9.2375C15.186 9.39583 14.6242 9.61667 14.0875 9.9ZM14.0875 15.4V13.7C14.6409 13.4667 15.207 13.2917 15.7856 13.175C16.3641 13.0583 16.9721 13 17.6094 13C18.0454 13 18.4731 13.0333 18.8923 13.1C19.3116 13.1667 19.7225 13.25 20.125 13.35V14.95C19.7225 14.8 19.3158 14.6875 18.9049 14.6125C18.494 14.5375 18.0622 14.5 17.6094 14.5C16.9721 14.5 16.36 14.575 15.773 14.725C15.186 14.875 14.6242 15.1 14.0875 15.4ZM14.0875 12.65V10.95C14.6409 10.7167 15.207 10.5417 15.7856 10.425C16.3641 10.3083 16.9721 10.25 17.6094 10.25C18.0454 10.25 18.4731 10.2833 18.8923 10.35C19.3116 10.4167 19.7225 10.5 20.125 10.6V12.2C19.7225 12.05 19.3158 11.9375 18.9049 11.8625C18.494 11.7875 18.0622 11.75 17.6094 11.75C16.9721 11.75 16.36 11.8292 15.773 11.9875C15.186 12.1458 14.6242 12.3667 14.0875 12.65ZM6.54063 16C7.32886 16 8.09613 16.0875 8.84243 16.2625C9.58873 16.4375 10.3308 16.7 11.0688 17.05V7.2C10.3812 6.8 9.65162 6.5 8.88016 6.3C8.1087 6.1 7.32886 6 6.54063 6C5.93688 6 5.33732 6.05833 4.74196 6.175C4.14659 6.29167 3.57219 6.46667 3.01876 6.7V16.6C3.60574 16.4 4.18852 16.25 4.76712 16.15C5.34571 16.05 5.93688 16 6.54063 16ZM13.0813 17.05C13.8192 16.7 14.5613 16.4375 15.3076 16.2625C16.0539 16.0875 16.8212 16 17.6094 16C18.2131 16 18.8043 16.05 19.3829 16.15C19.9615 16.25 20.5443 16.4 21.1313 16.6V6.7C20.5778 6.46667 20.0034 6.29167 19.4081 6.175C18.8127 6.05833 18.2131 6 17.6094 6C16.8212 6 16.0413 6.1 15.2698 6.3C14.4984 6.5 13.7689 6.8 13.0813 7.2V17.05ZM12.075 20C11.27 19.3667 10.3979 18.875 9.45876 18.525C8.51959 18.175 7.54688 18 6.54063 18C5.83626 18 5.14446 18.0917 4.46524 18.275C3.78602 18.4583 3.13615 18.7167 2.51563 19.05C2.16344 19.2333 1.82383 19.225 1.4968 19.025C1.16977 18.825 1.00626 18.5333 1.00626 18.15V6.1C1.00626 5.91667 1.05238 5.74167 1.14462 5.575C1.23686 5.40833 1.37521 5.28333 1.55969 5.2C2.33115 4.8 3.13615 4.5 3.97469 4.3C4.81323 4.1 5.66855 4 6.54063 4C7.51334 4 8.46508 4.125 9.39586 4.375C10.3266 4.625 11.2197 5 12.075 5.5C12.9303 5 13.8234 4.625 14.7541 4.375C15.6849 4.125 16.6367 4 17.6094 4C18.4815 4 19.3368 4.1 20.1753 4.3C21.0139 4.5 21.8189 4.8 22.5903 5.2C22.7748 5.28333 22.9132 5.40833 23.0054 5.575C23.0976 5.74167 23.1438 5.91667 23.1438 6.1V18.15C23.1438 18.5333 22.9802 18.825 22.6532 19.025C22.3262 19.225 21.9866 19.2333 21.6344 19.05C21.0139 18.7167 20.364 18.4583 19.6848 18.275C19.0056 18.0917 18.3138 18 17.6094 18C16.6031 18 15.6304 18.175 14.6913 18.525C13.7521 18.875 12.88 19.3667 12.075 20Z" fill="url(#paint0_linear_32_62)"/>
<defs>
<linearGradient id="paint0_linear_32_62" x1="11.6648" y1="3.77536" x2="23.1436" y2="3.7652" gradientUnits="userSpaceOnUse">
<stop offset="0.9999" stop-color="#CE1616"/>
<stop offset="1" stop-color="#FC0000" stop-opacity="0"/>
</linearGradient>
</defs>
</svg>
