<svg width="273" height="102" viewBox="0 0 273 102" fill="none" xmlns="http://www.w3.org/2000/svg">
<path d="M35.4375 40.1406C35.4062 40.1094 35.3906 40.0156 35.3906 39.8594C35.3906 39.7344 35.4062 39.6406 35.4375 39.5781C35.4688 39.5156 35.5312 39.3281 35.625 39.0156C35.7188 38.7031 35.8281 38.375 35.9531 38.0312C36.0781 37.6875 36.1875 37.3594 36.2812 37.0469C36.375 36.7344 36.4375 36.5312 36.4688 36.4375C37.375 33.5312 38.1719 30.9375 38.8594 28.6562C39.5469 26.3437 40.2031 24.0937 40.8281 21.9062C41.4531 19.7187 42.0625 17.4687 42.6562 15.1562C43.2812 12.8125 43.9688 10.1562 44.7188 7.1875V6.15625C43.8125 5.84375 42.8281 5.875 41.7656 6.25C40.7344 6.625 39.6719 7.23437 38.5781 8.07812C37.4844 8.92187 36.375 9.9375 35.25 11.125C34.125 12.2812 33.0312 13.5156 31.9688 14.8281C30.9062 16.1094 29.875 17.3906 28.875 18.6719C27.875 19.9219 26.9531 21.0781 26.1094 22.1406C25.2656 23.1719 24.5 24.0312 23.8125 24.7187C23.1562 25.375 22.625 25.75 22.2188 25.8437C21.9375 25.9062 21.5938 25.875 21.1875 25.75C20.7812 25.5937 20.5781 25.4375 20.5781 25.2812V22.0937C20.6719 21.75 20.7969 21.2031 20.9531 20.4531C21.1406 19.7031 21.3281 18.8594 21.5156 17.9219C21.7344 16.9844 21.9531 16 22.1719 14.9687C22.4219 13.9375 22.6406 12.9531 22.8281 12.0156C23.0469 11.0781 23.2344 10.25 23.3906 9.53125C23.5469 8.78125 23.6719 8.21875 23.7656 7.84375C23.9219 7.125 24.0625 6.42187 24.1875 5.73437C24.3438 5.04687 24.375 4.32812 24.2812 3.57812C23.3438 3.26562 22.3438 3.51562 21.2812 4.32812C20.2188 5.10937 19.125 6.26562 18 7.79687C16.9062 9.32812 15.7969 11.1094 14.6719 13.1406C13.5469 15.1719 12.4531 17.2656 11.3906 19.4219C10.3281 21.5781 9.29688 23.7031 8.29688 25.7969C7.32812 27.8906 6.4375 29.75 5.625 31.375C4.8125 32.9687 4.09375 34.25 3.46875 35.2188C2.875 36.1562 2.40625 36.5625 2.0625 36.4375C1.625 36.3125 1.45312 35.7969 1.54688 34.8906C1.67188 33.9844 1.98438 32.8437 2.48438 31.4687C2.98438 30.0625 3.625 28.4844 4.40625 26.7344C5.1875 24.9531 6.03125 23.125 6.9375 21.25C7.875 19.375 8.82812 17.5 9.79688 15.625C10.7656 13.75 11.6875 12.0156 12.5625 10.4219C13.4375 8.82812 14.2031 7.4375 14.8594 6.25C15.5469 5.03125 16.0469 4.14062 16.3594 3.57812C17.0156 3.82812 17.5938 3.92187 18.0938 3.85937C18.5938 3.76562 19.0625 3.59375 19.5 3.34375C19.9375 3.09375 20.3594 2.79687 20.7656 2.45312C21.2031 2.10937 21.6875 1.78125 22.2188 1.46875C23.3438 0.781249 24.2344 0.484374 24.8906 0.578124C25.5469 0.671874 26.0156 1.01562 26.2969 1.60937C26.6094 2.20312 26.7656 3.01562 26.7656 4.04687C26.7656 5.04687 26.6875 6.14062 26.5312 7.32812C26.375 8.51562 26.1562 9.73437 25.875 10.9844C25.625 12.2031 25.375 13.3437 25.125 14.4062C24.875 15.4375 24.6562 16.3281 24.4688 17.0781C24.3125 17.7969 24.25 18.25 24.2812 18.4375C24.5312 18.5625 24.7344 18.5469 24.8906 18.3906C25.0781 18.2344 25.2344 18.0781 25.3594 17.9219C25.4531 17.7656 25.6719 17.4687 26.0156 17.0312C26.3906 16.5937 26.8125 16.0937 27.2812 15.5312C27.75 14.9375 28.25 14.3125 28.7812 13.6562C29.3125 13 29.8125 12.3906 30.2812 11.8281C30.7812 11.2344 31.2031 10.7187 31.5469 10.2812C31.8906 9.84375 32.125 9.54687 32.25 9.39062C34.9688 7.23437 37.2656 5.64062 39.1406 4.60937C41.0469 3.54687 42.5781 2.95312 43.7344 2.82812C44.9219 2.70312 45.7812 2.98437 46.3125 3.67187C46.8438 4.35937 47.125 5.34375 47.1562 6.625C47.1875 7.875 47 9.39062 46.5938 11.1719C46.1875 12.9219 45.6406 14.8125 44.9531 16.8437C44.8594 17.125 44.6719 17.7187 44.3906 18.625C44.1406 19.5 43.8281 20.5469 43.4531 21.7656C43.0781 22.9531 42.6875 24.2187 42.2812 25.5625C41.9062 26.9062 41.5312 28.1875 41.1562 29.4062C40.7812 30.5937 40.4531 31.6406 40.1719 32.5469C39.9219 33.4219 39.75 34 39.6562 34.2812C39.6562 34.3125 39.625 34.5156 39.5625 34.8906C39.5 35.2656 39.3906 35.7188 39.2344 36.25C39.1094 36.75 38.9531 37.2812 38.7656 37.8438C38.5781 38.4375 38.3438 38.9688 38.0625 39.4375C37.7812 39.9062 37.4531 40.2656 37.0781 40.5156C36.7344 40.7656 36.3438 40.8125 35.9062 40.6562C35.875 40.6562 35.7969 40.5781 35.6719 40.4219C35.5469 40.2969 35.4688 40.2031 35.4375 40.1406Z" fill="black"/>
<path d="M50.2031 35.9219C49.4531 35.2969 49.0312 34.375 48.9375 33.1562C48.875 31.9375 49.0469 30.5625 49.4531 29.0312C49.8906 27.5 50.5156 25.9062 51.3281 24.25C52.1719 22.5625 53.1406 20.9687 54.2344 19.4687C55.3281 17.9375 56.5156 16.5781 57.7969 15.3906C59.0781 14.1719 60.3594 13.2812 61.6406 12.7187C62.9219 12.125 64.1719 11.9219 65.3906 12.1094C66.6094 12.2656 67.7188 12.9687 68.7188 14.2187C69.3438 15 69.7188 15.7969 69.8438 16.6094C69.9688 17.3906 69.9531 18.2031 69.7969 19.0469C69.6406 19.8594 69.3906 20.7031 69.0469 21.5781C68.7031 22.4219 68.3594 23.2812 68.0156 24.1562C67.7031 25.0312 67.4375 25.9219 67.2188 26.8281C67.0312 27.7344 67 28.6562 67.125 29.5937C67.2812 30.7812 67.8125 31.4844 68.7188 31.7031C69.625 31.9219 70.7031 31.8594 71.9531 31.5156C73.2344 31.1719 74.5781 30.625 75.9844 29.875C77.3906 29.125 78.6875 28.375 79.875 27.625C81.0938 26.875 82.0938 26.2187 82.875 25.6562C83.6875 25.0937 84.0938 24.8125 84.0938 24.8125C84.9688 24.625 85.4531 24.6875 85.5469 25C85.6719 25.2812 85.5 25.7187 85.0312 26.3125C84.5938 26.875 83.9219 27.5312 83.0156 28.2812C82.1094 29 81.0781 29.7031 79.9219 30.3906C78.7656 31.0781 77.5312 31.7031 76.2188 32.2656C74.9062 32.8281 73.625 33.2188 72.375 33.4375C71.125 33.625 69.9375 33.6094 68.8125 33.3906C67.7188 33.1406 66.8125 32.5781 66.0938 31.7031C65.75 31.3281 65.4844 30.9531 65.2969 30.5781C65.1406 30.2031 64.875 29.875 64.5 29.5937C64.0312 30.0312 63.4688 30.6094 62.8125 31.3281C62.1562 32.0156 61.4375 32.7188 60.6562 33.4375C59.9062 34.125 59.0938 34.7812 58.2188 35.4062C57.375 36.0312 56.5 36.5 55.5938 36.8125C54.6875 37.125 53.7656 37.2344 52.8281 37.1406C51.9219 37.0469 51.0469 36.6406 50.2031 35.9219ZM50.7188 34.3281C51 35.3281 51.625 35.7969 52.5938 35.7344C53.5625 35.6406 54.6875 35.1562 55.9688 34.2812C57.25 33.4062 58.5781 32.2187 59.9531 30.7187C61.3281 29.1875 62.5625 27.5 63.6562 25.6562C64.75 23.7812 65.5781 21.8125 66.1406 19.75C66.7344 17.6875 66.8906 15.6562 66.6094 13.6562C65.8594 13.0625 64.9219 13.0469 63.7969 13.6094C62.6719 14.1406 61.4688 15.0312 60.1875 16.2812C58.9375 17.5 57.6875 18.9687 56.4375 20.6875C55.2188 22.375 54.1406 24.0937 53.2031 25.8437C52.2656 27.5625 51.5469 29.1875 51.0469 30.7187C50.5781 32.25 50.4688 33.4531 50.7188 34.3281Z" fill="black"/>
<path d="M84.7031 36.4844C84.6719 36.4219 84.6562 36.25 84.6562 35.9688C84.6562 35.6875 84.6719 35.5 84.7031 35.4062C84.7969 35.0625 84.9688 34.4688 85.2188 33.625C85.4688 32.75 85.7344 31.8437 86.0156 30.9062C86.2969 29.9375 86.5625 29.0312 86.8125 28.1875C87.0625 27.3437 87.2344 26.75 87.3281 26.4062C87.4531 25.9687 87.5938 25.4687 87.75 24.9062C87.9062 24.3125 87.9375 23.75 87.8438 23.2187C87.375 23.1562 86.7969 23.2187 86.1094 23.4062C85.4219 23.5625 84.7344 23.7031 84.0469 23.8281C83.3906 23.9219 82.7656 23.9219 82.1719 23.8281C81.6094 23.7031 81.2031 23.3281 80.9531 22.7031C81.3281 21.9219 81.8906 21.4219 82.6406 21.2031C83.3906 20.9531 84.2031 20.7812 85.0781 20.6875C85.9531 20.5937 86.7812 20.4531 87.5625 20.2656C88.375 20.0781 89.0156 19.6562 89.4844 19C89.7656 18.1875 90.0938 17.2031 90.4688 16.0469C90.875 14.8594 91.2969 13.625 91.7344 12.3437C92.1719 11.0625 92.6406 9.79687 93.1406 8.54687C93.6719 7.29687 94.2188 6.1875 94.7812 5.21875C95.125 5 95.4062 4.98437 95.625 5.17187C95.8438 5.35937 96 5.64062 96.0938 6.01562C96.2188 6.35937 96.2969 6.71875 96.3281 7.09375C96.3594 7.46875 96.3594 7.71875 96.3281 7.84375C96.1406 8.65625 95.8125 9.53125 95.3438 10.4687C94.9062 11.375 94.4844 12.2969 94.0781 13.2344C93.7031 14.1719 93.3906 15.1094 93.1406 16.0469C92.9219 16.9844 92.9219 17.875 93.1406 18.7187H103.219C103.25 18.7187 103.328 18.8281 103.453 19.0469C103.578 19.2344 103.688 19.3906 103.781 19.5156C103.938 19.9531 103.766 20.25 103.266 20.4062C102.766 20.5625 102.094 20.6719 101.25 20.7344C100.406 20.7656 99.4375 20.7969 98.3438 20.8281C97.2812 20.8281 96.25 20.9062 95.25 21.0625C94.2812 21.1875 93.4062 21.4219 92.625 21.7656C91.8438 22.0781 91.3125 22.5625 91.0312 23.2187C90.2188 25.3125 89.4688 27.4219 88.7812 29.5469C88.0938 31.6406 87.4375 33.7656 86.8125 35.9219C86.75 36.0156 86.625 36.1719 86.4375 36.3906C86.25 36.5781 86.0469 36.75 85.8281 36.9062C85.6094 37.0312 85.3906 37.0781 85.1719 37.0469C84.9844 37.0156 84.8281 36.8281 84.7031 36.4844Z" fill="black"/>
<path d="M101.109 35.9219C101.078 35.8594 101.062 35.7812 101.062 35.6875C101.062 35.5625 101.078 35.4688 101.109 35.4062C101.234 35.1562 101.438 34.7344 101.719 34.1406C102.031 33.5156 102.344 32.875 102.656 32.2187C103 31.5312 103.328 30.8906 103.641 30.2969C103.953 29.7031 104.172 29.2812 104.297 29.0312C104.359 28.9375 104.516 28.6719 104.766 28.2344C105.047 27.7969 105.375 27.2656 105.75 26.6406C106.156 25.9844 106.578 25.2656 107.016 24.4844C107.484 23.7031 107.938 22.9375 108.375 22.1875C108.844 21.4375 109.266 20.7344 109.641 20.0781C110.047 19.4219 110.375 18.875 110.625 18.4375C111.25 17.4062 111.969 16.1875 112.781 14.7812C113.625 13.375 114.484 11.9531 115.359 10.5156C116.234 9.07812 117.094 7.6875 117.938 6.34375C118.812 5 119.609 3.89062 120.328 3.01562C121.047 2.14062 121.656 1.5625 122.156 1.28125C122.656 0.999999 123 1.1875 123.188 1.84375V3.34375C122.969 3.6875 122.672 4.14062 122.297 4.70312C121.922 5.23437 121.531 5.8125 121.125 6.4375C120.75 7.03125 120.375 7.60937 120 8.17187C119.625 8.73437 119.344 9.17187 119.156 9.48437C118.875 9.92187 118.422 10.625 117.797 11.5937C117.172 12.5625 116.469 13.6562 115.688 14.875C114.906 16.0937 114.109 17.375 113.297 18.7187C112.484 20.0312 111.75 21.2656 111.094 22.4219C110.438 23.5781 109.906 24.5781 109.5 25.4219C109.125 26.2344 108.984 26.75 109.078 26.9687C109.828 26.75 110.625 26.3594 111.469 25.7969C112.344 25.2031 113.219 24.5781 114.094 23.9219C114.969 23.2656 115.844 22.6406 116.719 22.0469C117.594 21.4219 118.406 20.9375 119.156 20.5937C119.906 20.6875 120.562 20.9687 121.125 21.4375C121.688 21.9062 122.094 22.5 122.344 23.2187C122.312 23.5 122.281 24.0312 122.25 24.8125C122.25 25.5625 122.25 26.3594 122.25 27.2031C122.25 28.0469 122.25 28.8437 122.25 29.5937C122.281 30.3437 122.312 30.8594 122.344 31.1406C122.375 31.4844 122.531 31.9219 122.812 32.4531C123.094 32.9531 123.391 33.4688 123.703 34C124.047 34.5 124.344 34.9375 124.594 35.3125C124.875 35.6875 125 35.8906 124.969 35.9219C124.344 36.1406 123.75 36.1562 123.188 35.9688C122.625 35.75 122.125 35.4219 121.688 34.9844C121.281 34.5156 120.938 34 120.656 33.4375C120.406 32.8438 120.25 32.2656 120.188 31.7031C120.156 31.4219 120.109 30.9062 120.047 30.1562C119.984 29.375 119.922 28.5625 119.859 27.7187C119.828 26.875 119.781 26.0781 119.719 25.3281C119.688 24.5781 119.672 24.0625 119.672 23.7812L118.594 23.2187C118.406 23.125 118.078 23.2031 117.609 23.4531C117.172 23.7031 116.656 24.0469 116.062 24.4844C115.469 24.9219 114.844 25.4219 114.188 25.9844C113.531 26.5469 112.906 27.0781 112.312 27.5781C111.75 28.0781 111.266 28.5156 110.859 28.8906C110.453 29.2656 110.203 29.5 110.109 29.5937C109.859 29.8437 109.406 30.2969 108.75 30.9531C108.094 31.5781 107.391 32.2656 106.641 33.0156C105.922 33.7344 105.234 34.4219 104.578 35.0781C103.953 35.7344 103.516 36.2031 103.266 36.4844C102.828 36.5781 102.406 36.625 102 36.625C101.625 36.5938 101.328 36.3594 101.109 35.9219Z" fill="black"/>
<path d="M130.547 36.4844C129.609 36.1719 128.891 35.7031 128.391 35.0781C127.922 34.4219 127.609 33.7031 127.453 32.9219C127.297 32.1406 127.266 31.3281 127.359 30.4844C127.484 29.6094 127.672 28.7812 127.922 28C128.859 27 129.906 25.8594 131.062 24.5781C132.25 23.2656 133.5 21.9844 134.812 20.7344C136.125 19.4844 137.484 18.3281 138.891 17.2656C140.328 16.1719 141.781 15.3437 143.25 14.7812C143.75 14.5625 144.141 14.5781 144.422 14.8281C144.734 15.0469 144.953 15.4062 145.078 15.9062C145.203 16.4062 145.25 16.9844 145.219 17.6406C145.219 18.2969 145.172 18.9375 145.078 19.5625C144.984 20.1875 144.859 20.75 144.703 21.25C144.547 21.75 144.391 22.0937 144.234 22.2812C143.859 22.7187 143.125 23.2344 142.031 23.8281C140.969 24.4219 139.781 25.0781 138.469 25.7969C137.156 26.4844 135.844 27.2031 134.531 27.9531C133.219 28.7031 132.141 29.4531 131.297 30.2031C130.453 30.9219 129.953 31.6406 129.797 32.3594C129.641 33.0781 130.078 33.7344 131.109 34.3281C132.172 34.4531 133.453 34.4062 134.953 34.1875C136.484 33.9375 138.031 33.625 139.594 33.25C141.188 32.8438 142.719 32.4375 144.188 32.0312C145.656 31.5937 146.859 31.25 147.797 31L148.359 31.5156C147.672 32.4219 146.547 33.25 144.984 34C143.422 34.75 141.734 35.375 139.922 35.875C138.109 36.3438 136.344 36.6562 134.625 36.8125C132.906 36.9375 131.547 36.8281 130.547 36.4844ZM141.75 18.5781C141.719 18.5469 141.484 18.6875 141.047 19C140.609 19.2812 140.062 19.6719 139.406 20.1719C138.781 20.6406 138.094 21.1719 137.344 21.7656C136.625 22.3281 135.953 22.8594 135.328 23.3594C134.734 23.8594 134.234 24.2969 133.828 24.6719C133.422 25.0156 133.25 25.1875 133.312 25.1875C133.812 25.2812 134.453 25.2187 135.234 25C136.047 24.75 136.875 24.4062 137.719 23.9687C138.594 23.5312 139.422 23.0469 140.203 22.5156C140.984 21.9531 141.594 21.4062 142.031 20.875C142.5 20.3437 142.734 19.875 142.734 19.4687C142.766 19.0625 142.438 18.7656 141.75 18.5781Z" fill="black"/>
<path d="M167.109 36.4844C166.266 36.1406 165.594 35.6875 165.094 35.125C164.594 34.5625 164.203 33.9219 163.922 33.2031C163.641 32.4844 163.422 31.7344 163.266 30.9531C163.109 30.1406 162.969 29.3281 162.844 28.5156C162.562 28.3281 162.062 28.5156 161.344 29.0781C160.625 29.6094 159.797 30.2812 158.859 31.0937C157.922 31.9062 156.906 32.75 155.812 33.625C154.75 34.4688 153.719 35.0938 152.719 35.5C151.719 35.9062 150.797 35.9844 149.953 35.7344C149.141 35.4844 148.5 34.6719 148.031 33.2969C147.875 32.8281 147.922 32.1562 148.172 31.2812C148.453 30.375 148.859 29.3906 149.391 28.3281C149.922 27.2656 150.531 26.1719 151.219 25.0469C151.938 23.8906 152.625 22.8281 153.281 21.8594C153.969 20.8594 154.594 20.0156 155.156 19.3281C155.75 18.6094 156.203 18.1406 156.516 17.9219C157.234 18.2656 157.547 18.7969 157.453 19.5156C157.391 20.2031 157.109 21 156.609 21.9062C156.141 22.8125 155.516 23.7812 154.734 24.8125C153.984 25.8437 153.266 26.875 152.578 27.9062C151.922 28.9062 151.391 29.875 150.984 30.8125C150.578 31.75 150.469 32.5781 150.656 33.2969C151.344 33.5781 152.188 33.4375 153.188 32.875C154.219 32.2812 155.312 31.4687 156.469 30.4375C157.656 29.4062 158.859 28.2344 160.078 26.9219C161.328 25.5781 162.484 24.2969 163.547 23.0781C164.609 21.8281 165.547 20.7344 166.359 19.7969C167.172 18.8594 167.766 18.2344 168.141 17.9219C168.797 18.2344 169.125 18.75 169.125 19.4687C169.125 20.1562 168.938 20.9531 168.562 21.8594C168.219 22.7656 167.781 23.75 167.25 24.8125C166.75 25.8437 166.312 26.875 165.938 27.9062C165.562 28.9375 165.344 29.9219 165.281 30.8594C165.219 31.7969 165.469 32.6094 166.031 33.2969L167.625 35.1719H172.359C172.578 35.1719 172.625 35.2656 172.5 35.4531C172.375 35.6406 172.188 35.8438 171.938 36.0625C171.719 36.2812 171.484 36.5 171.234 36.7188C170.984 36.9062 170.844 37 170.812 37C170 37.1562 169.344 37.1719 168.844 37.0469C168.344 36.9531 167.766 36.7656 167.109 36.4844Z" fill="black"/>
<path d="M175.312 36.4844C174.938 36.2344 174.922 35.9062 175.266 35.5C175.641 35.0625 176.219 34.6094 177 34.1406C177.812 33.6406 178.75 33.125 179.812 32.5938C180.875 32.0625 181.891 31.5625 182.859 31.0937C183.859 30.625 184.734 30.2187 185.484 29.875C186.234 29.5 186.719 29.2187 186.938 29.0312C187.969 28.1562 188.5 27.4375 188.531 26.875C188.594 26.2812 188.344 25.8125 187.781 25.4687C187.219 25.0937 186.422 24.8125 185.391 24.625C184.391 24.4062 183.344 24.2187 182.25 24.0625C181.188 23.875 180.156 23.6875 179.156 23.5C178.188 23.3125 177.453 23.0625 176.953 22.75C176.453 22.4375 176.281 22.0312 176.438 21.5312C176.625 21 177.312 20.3281 178.5 19.5156C178.938 19.2031 179.578 18.75 180.422 18.1562C181.266 17.5625 182.172 16.9531 183.141 16.3281C184.141 15.7031 185.125 15.1406 186.094 14.6406C187.062 14.1406 187.875 13.8125 188.531 13.6562C188.875 13.5937 189.219 13.625 189.562 13.75C189.938 13.875 190.234 14.0625 190.453 14.3125C190.672 14.5312 190.766 14.7812 190.734 15.0625C190.734 15.3437 190.531 15.5937 190.125 15.8125C188.344 16.8125 186.625 17.75 184.969 18.625C183.344 19.5 181.703 20.5 180.047 21.625C179.953 21.875 179.969 22.0937 180.094 22.2812C180.25 22.4687 180.422 22.6094 180.609 22.7031C183.922 23.0469 186.406 23.5312 188.062 24.1562C189.75 24.7812 190.812 25.4687 191.25 26.2187C191.719 26.9687 191.672 27.7656 191.109 28.6094C190.547 29.4531 189.703 30.2812 188.578 31.0937C187.484 31.9062 186.219 32.6719 184.781 33.3906C183.344 34.1094 181.953 34.7188 180.609 35.2188C179.297 35.7188 178.141 36.0938 177.141 36.3438C176.141 36.5938 175.531 36.6406 175.312 36.4844Z" fill="black"/>
<path d="M3.46875 100.859C2.53125 100.328 1.875 99.8125 1.5 99.3125C1.125 98.8125 0.9375 98.2812 0.9375 97.7188C0.9375 97.1562 1.07812 96.5312 1.35938 95.8438C1.64062 95.1562 1.96875 94.3594 2.34375 93.4531C2.4375 93.2656 2.625 92.8906 2.90625 92.3281C3.1875 91.7344 3.5 91.0469 3.84375 90.2656C4.21875 89.4844 4.60938 88.6719 5.01562 87.8281C5.45312 86.9531 5.84375 86.125 6.1875 85.3438C6.5625 84.5625 6.875 83.8906 7.125 83.3281C7.40625 82.7344 7.59375 82.3438 7.6875 82.1562C8.09375 81.2812 8.26562 80.5156 8.20312 79.8594C8.17188 79.1719 8.09375 78.5312 7.96875 77.9375C7.875 77.3438 7.82812 76.7656 7.82812 76.2031C7.85938 75.6406 8.15625 75 8.71875 74.2812C8.8125 74.1875 9.01562 73.9688 9.32812 73.625C9.64062 73.2812 9.96875 72.9219 10.3125 72.5469C10.6875 72.1406 11.0312 71.7812 11.3438 71.4688C11.6562 71.125 11.8438 70.9062 11.9062 70.8125C12.0625 70.625 12.5 70.3125 13.2188 69.875C13.9688 69.4375 14.875 68.9688 15.9375 68.4688C17 67.9375 18.1719 67.4062 19.4531 66.875C20.7656 66.3125 22.0625 65.8281 23.3438 65.4219C24.625 64.9844 25.8594 64.6562 27.0469 64.4375C28.2344 64.2188 29.25 64.1562 30.0938 64.25C30.9375 64.3438 31.5469 64.6406 31.9219 65.1406C32.3281 65.6406 32.3906 66.4062 32.1094 67.4375C31.6406 69.125 30.875 70.6094 29.8125 71.8906C28.7812 73.1719 27.6875 74.3125 26.5312 75.3125C25.375 76.3125 24.2656 77.2031 23.2031 77.9844C22.1719 78.7656 21.4062 79.5 20.9062 80.1875C24.6562 80.3125 27.3906 80.7656 29.1094 81.5469C30.8594 82.3281 31.8438 83.3125 32.0625 84.5C32.3125 85.6875 31.9375 87.0156 30.9375 88.4844C29.9375 89.9219 28.5625 91.3594 26.8125 92.7969C25.0625 94.2031 23.0781 95.5469 20.8594 96.8281C18.6406 98.0781 16.4219 99.1094 14.2031 99.9219C12.0156 100.734 9.95312 101.25 8.01562 101.469C6.10938 101.688 4.59375 101.484 3.46875 100.859ZM7.17188 89.5156C6.57812 90.2344 6.03125 91.0312 5.53125 91.9062C5.03125 92.75 4.64062 93.5938 4.35938 94.4375C4.10938 95.25 4 96.0312 4.03125 96.7812C4.0625 97.5 4.29688 98.0938 4.73438 98.5625C5.17188 99 5.82812 99.2656 6.70312 99.3594C7.60938 99.4531 8.8125 99.2812 10.3125 98.8438C13.625 98.0938 16.5 97.1406 18.9375 95.9844C21.4062 94.8281 23.4375 93.625 25.0312 92.375C26.6562 91.0938 27.8438 89.8281 28.5938 88.5781C29.375 87.3281 29.7344 86.2344 29.6719 85.2969C29.6406 84.3281 29.1875 83.5938 28.3125 83.0938C27.4688 82.5938 26.2344 82.4531 24.6094 82.6719C22.9844 82.8594 20.9688 83.5 18.5625 84.5938C16.1875 85.6562 13.4375 87.2969 10.3125 89.5156C9.96875 89.7969 9.65625 89.9375 9.375 89.9375C9.09375 89.9062 8.82812 89.8438 8.57812 89.75C8.32812 89.625 8.09375 89.5156 7.875 89.4219C7.65625 89.3281 7.42188 89.3594 7.17188 89.5156ZM8.20312 85.5781C8.20312 85.6719 8.1875 85.8125 8.15625 86C8.15625 86.1875 8.15625 86.3906 8.15625 86.6094C8.15625 86.7969 8.15625 86.9844 8.15625 87.1719C8.1875 87.3594 8.20312 87.5 8.20312 87.5938C8.45312 87.5312 8.96875 87.2344 9.75 86.7031C10.5312 86.1719 11.4688 85.4844 12.5625 84.6406C13.6875 83.7969 14.9062 82.8438 16.2188 81.7812C17.5312 80.6875 18.8438 79.5625 20.1562 78.4062C21.5 77.2188 22.7656 76.0469 23.9531 74.8906C25.1719 73.7031 26.2188 72.5938 27.0938 71.5625C27.9688 70.5312 28.625 69.625 29.0625 68.8438C29.5312 68.0312 29.6719 67.4062 29.4844 66.9688C28.1094 66.7812 26.6562 66.875 25.125 67.25C23.625 67.5938 22.1406 68.1094 20.6719 68.7969C19.2344 69.4844 17.8906 70.2812 16.6406 71.1875C15.3906 72.0625 14.3438 72.9219 13.5 73.7656C13.3125 74.1719 13 74.8906 12.5625 75.9219C12.125 76.9531 11.6406 78.0469 11.1094 79.2031C10.6094 80.3594 10.125 81.4531 9.65625 82.4844C9.21875 83.4844 8.90625 84.1875 8.71875 84.5938C8.71875 84.6562 8.64062 84.8281 8.48438 85.1094C8.32812 85.3594 8.23438 85.5156 8.20312 85.5781Z" fill="black"/>
<path d="M53.8125 100.484C52.9688 100.141 52.2969 99.6875 51.7969 99.125C51.2969 98.5625 50.9062 97.9219 50.625 97.2031C50.3438 96.4844 50.125 95.7344 49.9688 94.9531C49.8125 94.1406 49.6719 93.3281 49.5469 92.5156C49.2656 92.3281 48.7656 92.5156 48.0469 93.0781C47.3281 93.6094 46.5 94.2812 45.5625 95.0938C44.625 95.9062 43.6094 96.75 42.5156 97.625C41.4531 98.4688 40.4219 99.0938 39.4219 99.5C38.4219 99.9062 37.5 99.9844 36.6562 99.7344C35.8438 99.4844 35.2031 98.6719 34.7344 97.2969C34.5781 96.8281 34.625 96.1562 34.875 95.2812C35.1562 94.375 35.5625 93.3906 36.0938 92.3281C36.625 91.2656 37.2344 90.1719 37.9219 89.0469C38.6406 87.8906 39.3281 86.8281 39.9844 85.8594C40.6719 84.8594 41.2969 84.0156 41.8594 83.3281C42.4531 82.6094 42.9062 82.1406 43.2188 81.9219C43.9375 82.2656 44.25 82.7969 44.1562 83.5156C44.0938 84.2031 43.8125 85 43.3125 85.9062C42.8438 86.8125 42.2188 87.7812 41.4375 88.8125C40.6875 89.8438 39.9688 90.875 39.2812 91.9062C38.625 92.9062 38.0938 93.875 37.6875 94.8125C37.2812 95.75 37.1719 96.5781 37.3594 97.2969C38.0469 97.5781 38.8906 97.4375 39.8906 96.875C40.9219 96.2812 42.0156 95.4688 43.1719 94.4375C44.3594 93.4062 45.5625 92.2344 46.7812 90.9219C48.0312 89.5781 49.1875 88.2969 50.25 87.0781C51.3125 85.8281 52.25 84.7344 53.0625 83.7969C53.875 82.8594 54.4688 82.2344 54.8438 81.9219C55.5 82.2344 55.8281 82.75 55.8281 83.4688C55.8281 84.1562 55.6406 84.9531 55.2656 85.8594C54.9219 86.7656 54.4844 87.75 53.9531 88.8125C53.4531 89.8438 53.0156 90.875 52.6406 91.9062C52.2656 92.9375 52.0469 93.9219 51.9844 94.8594C51.9219 95.7969 52.1719 96.6094 52.7344 97.2969L54.3281 99.1719H59.0625C59.2812 99.1719 59.3281 99.2656 59.2031 99.4531C59.0781 99.6406 58.8906 99.8438 58.6406 100.062C58.4219 100.281 58.1875 100.5 57.9375 100.719C57.6875 100.906 57.5469 101 57.5156 101C56.7031 101.156 56.0469 101.172 55.5469 101.047C55.0469 100.953 54.4688 100.766 53.8125 100.484Z" fill="black"/>
<path d="M62.0156 100.484C61.6406 100.234 61.625 99.9062 61.9688 99.5C62.3438 99.0625 62.9219 98.6094 63.7031 98.1406C64.5156 97.6406 65.4531 97.125 66.5156 96.5938C67.5781 96.0625 68.5938 95.5625 69.5625 95.0938C70.5625 94.625 71.4375 94.2188 72.1875 93.875C72.9375 93.5 73.4219 93.2188 73.6406 93.0312C74.6719 92.1562 75.2031 91.4375 75.2344 90.875C75.2969 90.2812 75.0469 89.8125 74.4844 89.4688C73.9219 89.0938 73.125 88.8125 72.0938 88.625C71.0938 88.4062 70.0469 88.2188 68.9531 88.0625C67.8906 87.875 66.8594 87.6875 65.8594 87.5C64.8906 87.3125 64.1562 87.0625 63.6562 86.75C63.1562 86.4375 62.9844 86.0312 63.1406 85.5312C63.3281 85 64.0156 84.3281 65.2031 83.5156C65.6406 83.2031 66.2812 82.75 67.125 82.1562C67.9688 81.5625 68.875 80.9531 69.8438 80.3281C70.8438 79.7031 71.8281 79.1406 72.7969 78.6406C73.7656 78.1406 74.5781 77.8125 75.2344 77.6562C75.5781 77.5938 75.9219 77.625 76.2656 77.75C76.6406 77.875 76.9375 78.0625 77.1562 78.3125C77.375 78.5312 77.4688 78.7812 77.4375 79.0625C77.4375 79.3438 77.2344 79.5938 76.8281 79.8125C75.0469 80.8125 73.3281 81.75 71.6719 82.625C70.0469 83.5 68.4062 84.5 66.75 85.625C66.6562 85.875 66.6719 86.0938 66.7969 86.2812C66.9531 86.4688 67.125 86.6094 67.3125 86.7031C70.625 87.0469 73.1094 87.5312 74.7656 88.1562C76.4531 88.7812 77.5156 89.4688 77.9531 90.2188C78.4219 90.9688 78.375 91.7656 77.8125 92.6094C77.25 93.4531 76.4062 94.2812 75.2812 95.0938C74.1875 95.9062 72.9219 96.6719 71.4844 97.3906C70.0469 98.1094 68.6562 98.7188 67.3125 99.2188C66 99.7188 64.8438 100.094 63.8438 100.344C62.8438 100.594 62.2344 100.641 62.0156 100.484Z" fill="black"/>
<path d="M83.4844 100.484C83.4531 100.422 83.4375 100.25 83.4375 99.9688C83.4375 99.6875 83.4531 99.5 83.4844 99.4062C83.5781 99.0625 83.75 98.4688 84 97.625C84.25 96.75 84.5156 95.8438 84.7969 94.9062C85.0781 93.9375 85.3438 93.0312 85.5938 92.1875C85.8438 91.3438 86.0156 90.75 86.1094 90.4062C86.2344 89.9688 86.375 89.4688 86.5312 88.9062C86.6875 88.3125 86.7188 87.75 86.625 87.2188C86.1562 87.1562 85.5781 87.2188 84.8906 87.4062C84.2031 87.5625 83.5156 87.7031 82.8281 87.8281C82.1719 87.9219 81.5469 87.9219 80.9531 87.8281C80.3906 87.7031 79.9844 87.3281 79.7344 86.7031C80.1094 85.9219 80.6719 85.4219 81.4219 85.2031C82.1719 84.9531 82.9844 84.7812 83.8594 84.6875C84.7344 84.5938 85.5625 84.4531 86.3438 84.2656C87.1562 84.0781 87.7969 83.6562 88.2656 83C88.5469 82.1875 88.875 81.2031 89.25 80.0469C89.6562 78.8594 90.0781 77.625 90.5156 76.3438C90.9531 75.0625 91.4219 73.7969 91.9219 72.5469C92.4531 71.2969 93 70.1875 93.5625 69.2188C93.9062 69 94.1875 68.9844 94.4062 69.1719C94.625 69.3594 94.7812 69.6406 94.875 70.0156C95 70.3594 95.0781 70.7188 95.1094 71.0938C95.1406 71.4688 95.1406 71.7188 95.1094 71.8438C94.9219 72.6562 94.5938 73.5312 94.125 74.4688C93.6875 75.375 93.2656 76.2969 92.8594 77.2344C92.4844 78.1719 92.1719 79.1094 91.9219 80.0469C91.7031 80.9844 91.7031 81.875 91.9219 82.7188H102C102.031 82.7188 102.109 82.8281 102.234 83.0469C102.359 83.2344 102.469 83.3906 102.562 83.5156C102.719 83.9531 102.547 84.25 102.047 84.4062C101.547 84.5625 100.875 84.6719 100.031 84.7344C99.1875 84.7656 98.2188 84.7969 97.125 84.8281C96.0625 84.8281 95.0312 84.9062 94.0312 85.0625C93.0625 85.1875 92.1875 85.4219 91.4062 85.7656C90.625 86.0781 90.0938 86.5625 89.8125 87.2188C89 89.3125 88.25 91.4219 87.5625 93.5469C86.875 95.6406 86.2188 97.7656 85.5938 99.9219C85.5312 100.016 85.4062 100.172 85.2188 100.391C85.0312 100.578 84.8281 100.75 84.6094 100.906C84.3906 101.031 84.1719 101.078 83.9531 101.047C83.7656 101.016 83.6094 100.828 83.4844 100.484Z" fill="black"/>
<path d="M102.047 99.9219C101.297 99.2969 100.875 98.375 100.781 97.1562C100.719 95.9375 100.891 94.5625 101.297 93.0312C101.734 91.5 102.359 89.9062 103.172 88.25C104.016 86.5625 104.984 84.9688 106.078 83.4688C107.172 81.9375 108.359 80.5781 109.641 79.3906C110.922 78.1719 112.203 77.2812 113.484 76.7188C114.766 76.125 116.016 75.9219 117.234 76.1094C118.453 76.2656 119.562 76.9688 120.562 78.2188C121.188 79 121.562 79.7969 121.688 80.6094C121.812 81.3906 121.797 82.2031 121.641 83.0469C121.484 83.8594 121.234 84.7031 120.891 85.5781C120.547 86.4219 120.203 87.2812 119.859 88.1562C119.547 89.0312 119.281 89.9219 119.062 90.8281C118.875 91.7344 118.844 92.6562 118.969 93.5938C119.125 94.7812 119.656 95.4844 120.562 95.7031C121.469 95.9219 122.547 95.8594 123.797 95.5156C125.078 95.1719 126.422 94.625 127.828 93.875C129.234 93.125 130.531 92.375 131.719 91.625C132.938 90.875 133.938 90.2188 134.719 89.6562C135.531 89.0938 135.938 88.8125 135.938 88.8125C136.812 88.625 137.297 88.6875 137.391 89C137.516 89.2812 137.344 89.7188 136.875 90.3125C136.438 90.875 135.766 91.5312 134.859 92.2812C133.953 93 132.922 93.7031 131.766 94.3906C130.609 95.0781 129.375 95.7031 128.062 96.2656C126.75 96.8281 125.469 97.2188 124.219 97.4375C122.969 97.625 121.781 97.6094 120.656 97.3906C119.562 97.1406 118.656 96.5781 117.938 95.7031C117.594 95.3281 117.328 94.9531 117.141 94.5781C116.984 94.2031 116.719 93.875 116.344 93.5938C115.875 94.0312 115.312 94.6094 114.656 95.3281C114 96.0156 113.281 96.7188 112.5 97.4375C111.75 98.125 110.938 98.7812 110.062 99.4062C109.219 100.031 108.344 100.5 107.438 100.812C106.531 101.125 105.609 101.234 104.672 101.141C103.766 101.047 102.891 100.641 102.047 99.9219ZM102.562 98.3281C102.844 99.3281 103.469 99.7969 104.438 99.7344C105.406 99.6406 106.531 99.1562 107.812 98.2812C109.094 97.4062 110.422 96.2188 111.797 94.7188C113.172 93.1875 114.406 91.5 115.5 89.6562C116.594 87.7812 117.422 85.8125 117.984 83.75C118.578 81.6875 118.734 79.6562 118.453 77.6562C117.703 77.0625 116.766 77.0469 115.641 77.6094C114.516 78.1406 113.312 79.0312 112.031 80.2812C110.781 81.5 109.531 82.9688 108.281 84.6875C107.062 86.375 105.984 88.0938 105.047 89.8438C104.109 91.5625 103.391 93.1875 102.891 94.7188C102.422 96.25 102.312 97.4531 102.562 98.3281Z" fill="black"/>
<path d="M161.438 99.9219C161.094 99.5156 160.891 99.0625 160.828 98.5625C160.797 98.0312 160.828 97.5156 160.922 97.0156C161.047 96.4844 161.203 95.9844 161.391 95.5156C161.609 95.0156 161.812 94.5625 162 94.1562C162.125 93.8438 162.375 93.2812 162.75 92.4688C163.156 91.625 163.578 90.75 164.016 89.8438C164.484 88.9375 164.922 88.0938 165.328 87.3125C165.734 86.5 166.016 85.9375 166.172 85.625V84.5938C165.859 84.4375 165.219 84.6562 164.25 85.25C163.281 85.8125 162.156 86.6094 160.875 87.6406C159.594 88.6406 158.234 89.7656 156.797 91.0156C155.359 92.2656 154 93.4688 152.719 94.625C151.469 95.75 150.375 96.7656 149.438 97.6719C148.5 98.5469 147.906 99.125 147.656 99.4062C146.969 99.625 146.516 99.4844 146.297 98.9844C146.109 98.4531 146.062 97.7344 146.156 96.8281C146.25 95.8906 146.438 94.8594 146.719 93.7344C147 92.5781 147.281 91.5 147.562 90.5C147.875 89.4688 148.141 88.5938 148.359 87.875C148.609 87.1562 148.719 86.7656 148.688 86.7031C148.062 86.4844 147.406 86.5625 146.719 86.9375C146.031 87.3125 145.328 87.875 144.609 88.625C143.891 89.3438 143.172 90.2031 142.453 91.2031C141.734 92.1719 141.016 93.1562 140.297 94.1562C139.578 95.125 138.891 96.0625 138.234 96.9688C137.578 97.8438 136.953 98.5625 136.359 99.125C135.766 99.6875 135.203 100.016 134.672 100.109C134.172 100.203 133.734 99.9688 133.359 99.4062C133.328 99.375 133.312 99.2969 133.312 99.1719C133.312 99.0469 133.328 98.9531 133.359 98.8906C133.516 98.5781 133.75 98.0938 134.062 97.4375C134.406 96.75 134.781 95.9844 135.188 95.1406C135.594 94.2969 136.031 93.4219 136.5 92.5156C136.969 91.5781 137.406 90.7031 137.812 89.8906C138.25 89.0469 138.625 88.2969 138.938 87.6406C139.281 86.9844 139.547 86.5 139.734 86.1875C139.891 85.875 140.109 85.4844 140.391 85.0156C140.672 84.5156 140.953 84.0469 141.234 83.6094C141.516 83.1406 141.766 82.75 141.984 82.4375C142.203 82.0938 142.312 81.9219 142.312 81.9219H143.438C143.656 82.6406 143.625 83.3125 143.344 83.9375C143.062 84.5625 142.719 85.1719 142.312 85.7656C141.938 86.3594 141.609 86.9531 141.328 87.5469C141.078 88.1094 141.078 88.7188 141.328 89.375C144.016 87 146.078 85.25 147.516 84.125C148.984 83 150.016 82.3594 150.609 82.2031C151.203 82.0469 151.484 82.2812 151.453 82.9062C151.422 83.5312 151.281 84.375 151.031 85.4375C150.812 86.5 150.578 87.7188 150.328 89.0938C150.109 90.4375 150.094 91.75 150.281 93.0312H150.844C151.031 92.9062 151.344 92.6719 151.781 92.3281C152.219 91.9844 152.688 91.6094 153.188 91.2031C153.719 90.7969 154.203 90.4219 154.641 90.0781C155.109 89.7344 155.438 89.5 155.625 89.375C155.969 89.0938 156.469 88.7031 157.125 88.2031C157.781 87.7031 158.438 87.2031 159.094 86.7031C159.781 86.1719 160.391 85.7188 160.922 85.3438C161.484 84.9375 161.844 84.6875 162 84.5938C162.125 84.5 162.391 84.3125 162.797 84.0312C163.234 83.7188 163.703 83.3906 164.203 83.0469C164.734 82.7031 165.234 82.3906 165.703 82.1094C166.172 81.7969 166.516 81.5625 166.734 81.4062C167.203 81.0938 167.641 80.9531 168.047 80.9844C168.453 81.0156 168.781 81.1719 169.031 81.4531C169.312 81.7031 169.484 82.0625 169.547 82.5312C169.609 82.9688 169.547 83.4688 169.359 84.0312C168.609 85.4375 167.859 86.8125 167.109 88.1562C166.391 89.5 165.719 90.8594 165.094 92.2344C164.5 93.5781 164 94.9688 163.594 96.4062C163.219 97.8438 163.016 99.375 162.984 101C162.828 101.094 162.656 101.094 162.469 101C162.312 100.906 162.156 100.781 162 100.625C161.844 100.469 161.703 100.312 161.578 100.156C161.484 100 161.438 99.9219 161.438 99.9219Z" fill="black"/>
<path d="M173.625 99.9219C172.875 99.2969 172.453 98.375 172.359 97.1562C172.297 95.9375 172.469 94.5625 172.875 93.0312C173.312 91.5 173.938 89.9062 174.75 88.25C175.594 86.5625 176.562 84.9688 177.656 83.4688C178.75 81.9375 179.938 80.5781 181.219 79.3906C182.5 78.1719 183.781 77.2812 185.062 76.7188C186.344 76.125 187.594 75.9219 188.812 76.1094C190.031 76.2656 191.141 76.9688 192.141 78.2188C192.766 79 193.141 79.7969 193.266 80.6094C193.391 81.3906 193.375 82.2031 193.219 83.0469C193.062 83.8594 192.812 84.7031 192.469 85.5781C192.125 86.4219 191.781 87.2812 191.438 88.1562C191.125 89.0312 190.859 89.9219 190.641 90.8281C190.453 91.7344 190.422 92.6562 190.547 93.5938C190.703 94.7812 191.234 95.4844 192.141 95.7031C193.047 95.9219 194.125 95.8594 195.375 95.5156C196.656 95.1719 198 94.625 199.406 93.875C200.812 93.125 202.109 92.375 203.297 91.625C204.516 90.875 205.516 90.2188 206.297 89.6562C207.109 89.0938 207.516 88.8125 207.516 88.8125C208.391 88.625 208.875 88.6875 208.969 89C209.094 89.2812 208.922 89.7188 208.453 90.3125C208.016 90.875 207.344 91.5312 206.438 92.2812C205.531 93 204.5 93.7031 203.344 94.3906C202.188 95.0781 200.953 95.7031 199.641 96.2656C198.328 96.8281 197.047 97.2188 195.797 97.4375C194.547 97.625 193.359 97.6094 192.234 97.3906C191.141 97.1406 190.234 96.5781 189.516 95.7031C189.172 95.3281 188.906 94.9531 188.719 94.5781C188.562 94.2031 188.297 93.875 187.922 93.5938C187.453 94.0312 186.891 94.6094 186.234 95.3281C185.578 96.0156 184.859 96.7188 184.078 97.4375C183.328 98.125 182.516 98.7812 181.641 99.4062C180.797 100.031 179.922 100.5 179.016 100.812C178.109 101.125 177.188 101.234 176.25 101.141C175.344 101.047 174.469 100.641 173.625 99.9219ZM174.141 98.3281C174.422 99.3281 175.047 99.7969 176.016 99.7344C176.984 99.6406 178.109 99.1562 179.391 98.2812C180.672 97.4062 182 96.2188 183.375 94.7188C184.75 93.1875 185.984 91.5 187.078 89.6562C188.172 87.7812 189 85.8125 189.562 83.75C190.156 81.6875 190.312 79.6562 190.031 77.6562C189.281 77.0625 188.344 77.0469 187.219 77.6094C186.094 78.1406 184.891 79.0312 183.609 80.2812C182.359 81.5 181.109 82.9688 179.859 84.6875C178.641 86.375 177.562 88.0938 176.625 89.8438C175.688 91.5625 174.969 93.1875 174.469 94.7188C174 96.25 173.891 97.4531 174.141 98.3281Z" fill="black"/>
<path d="M222.141 100.484C222.047 99.4531 222.125 98.4375 222.375 97.4375C222.656 96.4062 223.016 95.4062 223.453 94.4375C223.922 93.4375 224.406 92.4531 224.906 91.4844C225.438 90.4844 225.891 89.5156 226.266 88.5781C226.641 87.6094 226.906 86.6719 227.062 85.7656C227.219 84.8281 227.156 83.9062 226.875 83C226.094 82.7188 225.188 82.7812 224.156 83.1875C223.156 83.5938 222.094 84.2188 220.969 85.0625C219.844 85.875 218.672 86.8438 217.453 87.9688C216.266 89.0625 215.094 90.1875 213.938 91.3438C212.812 92.4688 211.734 93.5469 210.703 94.5781C209.672 95.6094 208.734 96.4688 207.891 97.1562C207.078 97.8125 206.391 98.2344 205.828 98.4219C205.266 98.5781 204.891 98.375 204.703 97.8125C204.672 97.7812 204.844 97.3906 205.219 96.6406C205.625 95.8594 206.109 94.8906 206.672 93.7344C207.266 92.5781 207.906 91.3281 208.594 89.9844C209.312 88.6406 209.984 87.3906 210.609 86.2344C211.234 85.0469 211.781 84.0469 212.25 83.2344C212.719 82.4219 213.016 81.9844 213.141 81.9219C213.797 82.3594 214.125 82.8438 214.125 83.375C214.156 83.875 214.078 84.4062 213.891 84.9688C213.703 85.5 213.484 86.0469 213.234 86.6094C213.016 87.1719 212.984 87.7344 213.141 88.2969C213.641 87.9531 214.328 87.4844 215.203 86.8906C216.109 86.2656 217.078 85.625 218.109 84.9688C219.172 84.3125 220.266 83.6719 221.391 83.0469C222.547 82.4219 223.625 81.9375 224.625 81.5938C225.625 81.2188 226.516 81.0156 227.297 80.9844C228.109 80.9531 228.703 81.1875 229.078 81.6875C229.453 82.1875 229.562 83.0156 229.406 84.1719C229.281 85.2969 228.797 86.8438 227.953 88.8125C227.859 89.0312 227.625 89.5625 227.25 90.4062C226.906 91.2188 226.516 92.1094 226.078 93.0781C225.672 94.0156 225.281 94.9062 224.906 95.75C224.562 96.5625 224.344 97.0781 224.25 97.2969C224.219 97.4219 224.172 97.6562 224.109 98C224.078 98.3125 224.031 98.6719 223.969 99.0781C223.906 99.4531 223.812 99.8281 223.688 100.203C223.562 100.547 223.406 100.812 223.219 101C223.031 101.188 222.812 101.172 222.562 100.953C222.312 100.703 222.172 100.547 222.141 100.484Z" fill="black"/>
<path d="M235.125 100.484C235.094 100.422 235.078 100.25 235.078 99.9688C235.078 99.6875 235.094 99.5 235.125 99.4062C235.219 99.0625 235.391 98.4688 235.641 97.625C235.891 96.75 236.156 95.8438 236.438 94.9062C236.719 93.9375 236.984 93.0312 237.234 92.1875C237.484 91.3438 237.656 90.75 237.75 90.4062C237.875 89.9688 238.016 89.4688 238.172 88.9062C238.328 88.3125 238.359 87.75 238.266 87.2188C237.797 87.1562 237.219 87.2188 236.531 87.4062C235.844 87.5625 235.156 87.7031 234.469 87.8281C233.812 87.9219 233.188 87.9219 232.594 87.8281C232.031 87.7031 231.625 87.3281 231.375 86.7031C231.75 85.9219 232.312 85.4219 233.062 85.2031C233.812 84.9531 234.625 84.7812 235.5 84.6875C236.375 84.5938 237.203 84.4531 237.984 84.2656C238.797 84.0781 239.438 83.6562 239.906 83C240.188 82.1875 240.516 81.2031 240.891 80.0469C241.297 78.8594 241.719 77.625 242.156 76.3438C242.594 75.0625 243.062 73.7969 243.562 72.5469C244.094 71.2969 244.641 70.1875 245.203 69.2188C245.547 69 245.828 68.9844 246.047 69.1719C246.266 69.3594 246.422 69.6406 246.516 70.0156C246.641 70.3594 246.719 70.7188 246.75 71.0938C246.781 71.4688 246.781 71.7188 246.75 71.8438C246.562 72.6562 246.234 73.5312 245.766 74.4688C245.328 75.375 244.906 76.2969 244.5 77.2344C244.125 78.1719 243.812 79.1094 243.562 80.0469C243.344 80.9844 243.344 81.875 243.562 82.7188H253.641C253.672 82.7188 253.75 82.8281 253.875 83.0469C254 83.2344 254.109 83.3906 254.203 83.5156C254.359 83.9531 254.188 84.25 253.688 84.4062C253.188 84.5625 252.516 84.6719 251.672 84.7344C250.828 84.7656 249.859 84.7969 248.766 84.8281C247.703 84.8281 246.672 84.9062 245.672 85.0625C244.703 85.1875 243.828 85.4219 243.047 85.7656C242.266 86.0781 241.734 86.5625 241.453 87.2188C240.641 89.3125 239.891 91.4219 239.203 93.5469C238.516 95.6406 237.859 97.7656 237.234 99.9219C237.172 100.016 237.047 100.172 236.859 100.391C236.672 100.578 236.469 100.75 236.25 100.906C236.031 101.031 235.812 101.078 235.594 101.047C235.406 101.016 235.25 100.828 235.125 100.484Z" fill="black"/>
<path d="M255 100.484C254.062 100.172 253.344 99.7031 252.844 99.0781C252.375 98.4219 252.062 97.7031 251.906 96.9219C251.75 96.1406 251.719 95.3281 251.812 94.4844C251.938 93.6094 252.125 92.7812 252.375 92C253.312 91 254.359 89.8594 255.516 88.5781C256.703 87.2656 257.953 85.9844 259.266 84.7344C260.578 83.4844 261.938 82.3281 263.344 81.2656C264.781 80.1719 266.234 79.3438 267.703 78.7812C268.203 78.5625 268.594 78.5781 268.875 78.8281C269.188 79.0469 269.406 79.4062 269.531 79.9062C269.656 80.4062 269.703 80.9844 269.672 81.6406C269.672 82.2969 269.625 82.9375 269.531 83.5625C269.438 84.1875 269.312 84.75 269.156 85.25C269 85.75 268.844 86.0938 268.688 86.2812C268.312 86.7188 267.578 87.2344 266.484 87.8281C265.422 88.4219 264.234 89.0781 262.922 89.7969C261.609 90.4844 260.297 91.2031 258.984 91.9531C257.672 92.7031 256.594 93.4531 255.75 94.2031C254.906 94.9219 254.406 95.6406 254.25 96.3594C254.094 97.0781 254.531 97.7344 255.562 98.3281C256.625 98.4531 257.906 98.4062 259.406 98.1875C260.938 97.9375 262.484 97.625 264.047 97.25C265.641 96.8438 267.172 96.4375 268.641 96.0312C270.109 95.5938 271.312 95.25 272.25 95L272.812 95.5156C272.125 96.4219 271 97.25 269.438 98C267.875 98.75 266.188 99.375 264.375 99.875C262.562 100.344 260.797 100.656 259.078 100.812C257.359 100.938 256 100.828 255 100.484ZM266.203 82.5781C266.172 82.5469 265.938 82.6875 265.5 83C265.062 83.2812 264.516 83.6719 263.859 84.1719C263.234 84.6406 262.547 85.1719 261.797 85.7656C261.078 86.3281 260.406 86.8594 259.781 87.3594C259.188 87.8594 258.688 88.2969 258.281 88.6719C257.875 89.0156 257.703 89.1875 257.766 89.1875C258.266 89.2812 258.906 89.2188 259.688 89C260.5 88.75 261.328 88.4062 262.172 87.9688C263.047 87.5312 263.875 87.0469 264.656 86.5156C265.438 85.9531 266.047 85.4062 266.484 84.875C266.953 84.3438 267.188 83.875 267.188 83.4688C267.219 83.0625 266.891 82.7656 266.203 82.5781Z" fill="black"/>
</svg>
